<svg width="221" height="128" viewBox="0 0 221 128" fill="none" xmlns="http://www.w3.org/2000/svg">
    <path fill-rule="evenodd" clip-rule="evenodd"
        d="M14.7727 10.1585C15.0244 10.0327 15.2761 9.92778 15.5279 9.84387C15.7167 10.2215 16.0313 10.3473 16.346 10.5361C15.8425 11.9836 14.3322 12.8646 12.9477 13.3681C17.4158 15.9483 21.7581 18.7173 26.1634 21.3604C41.3299 30.4855 56.4336 39.7994 71.5372 49.0504C72.8588 50.0573 74.4321 50.6866 75.6278 51.7565C74.9355 52.0711 74.3062 51.316 73.6769 51.0642C71.726 49.9944 69.9639 48.7358 68.013 47.6659C51.2102 37.471 34.4074 27.2131 17.6676 16.8922C15.9684 15.8853 14.2692 14.8155 12.5701 13.7456C12.2554 13.1793 12.5701 12.487 12.9477 12.0465C13.4511 11.2913 14.1434 10.7249 14.7727 10.1585ZM14.521 11.0396C14.0175 11.543 13.4511 12.0465 13.1365 12.7387C14.0175 12.3611 14.7727 11.6689 15.5279 11.1025C15.1922 11.0606 14.8566 11.0396 14.521 11.0396Z"
        fill="#fff" />
    <path
        d="M16.2831 9.84387C17.6046 10.2215 18.6745 11.1654 19.8073 11.8577C37.9946 23.8777 56.1818 35.9606 74.2433 48.1694C75.5019 49.0504 76.8864 49.7427 77.9563 50.8125C77.7045 51.4418 77.264 50.8754 76.8864 50.6866C57.0629 37.5968 37.3023 24.4441 17.6047 11.1025C17.1012 10.7878 16.5348 10.4103 16.2831 9.84387Z"
        fill="#fff" />
    <path fill-rule="evenodd" clip-rule="evenodd"
        d="M0.550171 29.7303C0.613103 28.1571 1.11656 26.395 2.50106 25.5139C2.62693 25.6398 2.81571 25.8915 2.94157 26.0174C26.7298 35.6459 50.4551 45.5262 74.1804 55.3436C74.2434 55.4695 74.3692 55.7212 74.4322 55.7841C74.2434 55.7841 73.8658 55.7841 73.677 55.7841C50.0775 46.0926 26.4781 36.4011 2.94157 26.5208C2.68985 27.5907 2.31226 28.5976 1.80881 29.5416C17.5418 35.7718 33.3377 41.9391 49.1336 48.2323C55.4267 50.7496 61.7199 53.2669 68.0131 55.7841C68.9571 56.1617 69.9011 56.4764 70.845 56.9169C70.6353 57.2106 70.4045 57.2945 70.1528 57.1686C58.2796 52.5117 46.4275 47.8547 34.5963 43.1978C23.5203 38.7925 12.4443 34.3873 1.36828 30.045C1.0746 29.9191 0.801898 29.8143 0.550171 29.7303ZM1.17949 29.2898C1.74588 28.4088 2.12346 27.4019 2.31225 26.395C1.68294 27.2131 1.11656 28.22 1.17949 29.2898Z"
        fill="#fff" />
    <path
        d="M140.07 13.494C142.273 12.6759 144.601 12.1724 146.804 11.2914C151.524 9.84392 156.306 8.45942 161.089 7.07492C163.795 6.4456 166.438 5.50162 169.144 4.99817C171.788 4.49471 174.305 3.42487 176.948 3.04728C181.668 1.97744 186.514 1.22226 191.359 0.718802C192.115 0.65587 192.87 0.467072 193.499 0.844663C191.737 1.34812 189.912 1.34812 188.15 1.66278C183.556 2.2921 178.899 3.11021 174.431 4.30591C170.844 4.99816 167.445 6.2568 163.921 7.01198C161.593 7.45251 159.39 8.2077 157.124 8.83701C155.111 9.46633 153.034 9.90685 151.083 10.662C148.629 11.5431 146.111 12.1095 143.657 12.9905C141.769 13.8086 139.755 14.1233 137.93 15.0043C136.735 15.4448 135.476 15.6966 134.28 16.263C125.26 19.4935 116.324 22.9967 107.471 26.7726C101.43 29.2899 95.4513 31.8071 89.5357 34.6391C83.3684 37.5969 77.3269 40.8064 71.2855 44.0159C71.2226 43.953 71.0338 43.7642 70.9708 43.7012C73.551 42.0021 76.32 40.7434 79.0261 39.296C86.0115 35.583 93.1228 32.1218 100.423 29.0381C110.807 24.57 121.19 20.2906 131.826 16.4518C132.896 15.8224 134.217 15.6966 135.35 15.1931C136.86 14.4379 138.56 14.1862 140.07 13.494Z"
        fill="#fff" />
    <path
        d="M148 14.6268C150.202 13.8087 152.342 12.8647 154.67 12.4242C154.985 12.4871 155.488 12.4242 155.363 12.8647C154.104 13.0535 152.845 13.3682 151.712 13.9346C149.132 14.7527 146.678 15.8854 144.224 16.9553C137.049 20.1019 129.875 23.1226 122.575 25.8916C121.631 26.3321 120.687 26.5839 119.68 26.7727C120.247 25.8916 121.442 25.8916 122.26 25.3881C130.882 21.9898 139.441 18.2769 148 14.6268Z"
        fill="#fff" />
    <path
        d="M195.639 0.655939C197.716 0.404211 199.792 0.718867 201.869 0.907662C202.876 0.970594 203.883 1.15939 204.89 1.22232C207.911 1.72578 211.183 2.29216 213.574 4.36891C214.77 5.24996 215.462 6.63446 216.092 7.95603C216.26 8.29166 216.197 8.56437 215.903 8.77414C215.462 7.7043 214.896 6.69739 214.204 5.75341C212.819 4.24305 210.931 3.23614 208.98 2.73268C208.309 2.56486 207.638 2.39705 206.967 2.22923C206.421 2.14533 205.876 2.04044 205.33 1.91458C204.701 1.83067 204.072 1.74675 203.442 1.66284C200.862 1.41112 198.345 0.970596 195.765 1.09646C195.765 0.970596 195.702 0.718871 195.639 0.655939Z"
        fill="#fff" />
    <path
        d="M160.082 12.487C161.215 12.0465 162.348 11.4801 163.544 11.1655C167.026 10.1585 170.487 9.17262 173.927 8.20766C176.445 7.38955 179.025 7.07489 181.542 6.25677C182.99 6.13091 184.374 5.69038 185.822 5.43866C190.29 4.62054 194.821 4.24295 199.352 4.36882C203.128 4.43175 207.03 5.3128 210.302 7.38955C210.743 7.76714 211.498 8.01887 211.498 8.64818C210.868 9.15164 210.617 8.20766 210.176 7.95593C206.589 5.75332 202.373 4.9352 198.219 4.99814C192.178 5.06107 186.136 5.87918 180.283 7.38955C177.766 7.70421 175.375 8.64818 172.921 9.21457C169.9 9.90682 166.879 10.5991 163.984 11.7318C162.851 12.0465 161.656 12.55 160.46 12.6129C160.397 12.6129 160.208 12.487 160.082 12.487Z"
        fill="#fff" />
    <path
        d="M156.81 18.4655C159.138 17.4586 161.404 15.8853 164.11 16.0111C164.173 16.137 164.425 16.3258 164.551 16.3887C161.656 16.3887 159.201 18.025 156.684 19.0948C155.929 19.1577 154.922 19.6612 154.293 19.0319C155.111 18.7172 156.055 18.906 156.81 18.4655Z"
        fill="#fff" />
    <path
        d="M166.061 16.8293C167.823 15.8224 169.837 15.0043 171.977 15.0672C172.48 15.1302 173.298 15.0043 173.55 15.6336C171.536 15.3819 169.459 15.5707 167.697 16.5776C165.494 17.7104 163.292 18.7802 161.026 19.7242C159.138 20.2906 157.376 21.2975 155.362 21.4863C154.796 21.4863 154.167 21.8009 153.789 21.2975C154.481 20.9828 155.3 21.0458 156.055 20.857C157.565 20.6052 158.887 19.7242 160.397 19.4095C162.327 18.6544 164.215 17.7943 166.061 16.8293Z"
        fill="#fff" />
    <path
        d="M177.011 13.7457C176.948 12.9276 177.955 13.494 178.459 13.3682C179.088 13.3682 179.696 13.3682 180.284 13.3682C183.556 13.3052 186.828 13.9345 190.101 13.6199C191.989 13.5569 193.877 13.1164 195.765 13.3682C197.59 13.6828 199.226 14.7527 200.799 15.6966C201.68 16.263 202.561 16.9553 203.191 17.8363C203.128 17.8992 202.939 18.0251 202.876 18.088C201.743 16.7665 200.296 15.9484 198.848 15.0673C197.779 14.5009 196.709 13.9975 195.45 13.8716C193.688 13.6199 191.863 14.0604 190.038 14.1233C187.269 14.438 184.5 13.9975 181.731 13.8716C180.158 13.8087 178.584 13.8716 177.011 13.7457Z"
        fill="#fff" />
    <path
        d="M143.594 24.7588C145.356 24.1924 147.118 23.626 148.943 23.2484C148.692 23.5001 148.44 23.8148 148.062 23.8777C146.678 24.4441 145.105 24.6329 143.783 25.3881C140.385 26.6467 136.986 27.9054 133.588 29.164C131.448 29.6675 129.435 30.6744 127.295 31.2408C125.092 32.1847 122.764 32.6882 120.498 33.4434C119.051 34.0727 117.603 34.5132 116.093 34.8908C115.967 34.8279 115.778 34.6391 115.652 34.5761C117.226 33.6322 118.988 33.3175 120.624 32.6253C125.155 31.3666 129.497 29.5416 134.029 28.1571C135.413 27.5278 136.923 27.2131 138.371 26.6467C140.007 25.8286 141.958 25.6398 143.594 24.7588Z"
        fill="#fff" />
    <path
        d="M149.825 22.8708C149.95 22.9338 150.265 23.0597 150.391 23.1226C150.957 24.1924 151.524 25.3252 151.964 26.458C151.461 27.4019 150.391 27.4019 149.573 27.8425C148.125 28.5347 146.426 28.7864 144.916 29.4787C143.783 29.9821 142.524 30.1709 141.392 30.7373C140.196 31.3037 138.874 31.4925 137.679 31.996C135.728 32.877 133.525 33.1917 131.574 34.0727C130.379 34.5762 129.057 34.8279 127.798 35.3314C129.561 35.1426 131.197 34.4503 132.896 34.0098C135.791 32.877 138.937 32.6253 141.769 31.3666C142.839 30.8632 144.098 30.7373 145.105 30.108C145.797 29.8563 146.678 29.2899 147.307 29.9192C145.734 30.2339 144.412 31.1149 142.902 31.4925C141.895 31.7442 141.014 32.3106 140.007 32.5624C135.036 33.9469 130.001 35.3943 125.029 36.8417C124.022 37.0935 122.953 37.1564 121.946 37.4081C121.946 37.2822 121.883 37.0305 121.883 36.9676C124.022 36.4641 126.036 35.5202 128.05 34.6391C128.805 34.4503 129.498 34.2615 130.19 33.8839C131.7 33.1917 133.336 33.0029 134.847 32.3106C136.105 31.6813 137.553 31.5554 138.874 30.9261C139.818 30.4227 140.888 30.2339 141.895 29.8563C143.531 28.9752 145.419 28.7864 147.119 28.0313C148.503 27.339 150.139 27.2761 151.398 26.3321C150.769 25.2623 150.328 24.0036 149.825 22.8708Z"
        fill="#fff" />
    <path
        d="M164.865 19.0949C166.061 18.2768 167.508 17.5846 169.019 17.8363C169.019 17.7733 169.082 17.5216 169.082 17.4587C169.963 17.3328 170.844 17.2699 171.725 17.2699C173.613 17.2699 174.871 18.9691 176.633 19.4096C177.137 19.5984 177.766 19.6613 178.081 20.1648C177.137 20.2277 176.256 19.913 175.375 19.5354C174.305 19.0949 173.55 18.088 172.417 17.8363C171.41 17.7104 170.403 17.7734 169.396 17.8992C170.214 18.1509 171.032 18.2768 171.788 18.7173C172.48 19.2208 173.109 19.7872 173.739 20.4165C174.557 21.4234 175.752 22.4303 177.2 22.2415C178.458 22.3674 179.339 21.2346 180.409 20.6682C181.29 20.1648 182.297 19.913 183.304 19.6613C183.619 19.5354 183.934 19.7872 184.248 19.913C182.549 20.3536 180.724 20.7941 179.339 22.0527C178.396 22.745 177.263 22.8079 176.13 22.745C174.368 22.3044 173.424 20.6682 172.102 19.5984C171.032 18.6544 169.585 18.3397 168.201 18.2768C166.816 18.4027 165.683 19.1579 164.613 19.913C163.858 20.4794 163.166 21.1087 162.788 21.9268C162.411 23.0596 162.788 24.2553 162.788 25.3881C162.725 25.514 162.537 25.7028 162.474 25.7657C162.222 24.6959 162.096 23.5631 162.096 22.4303C162.411 20.9199 163.669 19.8501 164.865 19.0949Z"
        fill="#fff" />
    <path
        d="M177.2 15.319C179.025 15.319 180.787 15.9483 182.612 16.1371C184.94 16.3888 187.269 16.4517 189.534 16.0112C191.297 15.5707 193.059 15.6336 194.821 15.7595C195.702 15.8854 196.562 16.0322 197.401 16.2C198.534 16.5776 199.666 17.0811 200.422 18.025C201.366 19.1578 202.184 20.3535 202.624 21.738C202.582 21.9478 202.54 22.1785 202.498 22.4303C202.184 21.801 201.806 21.1087 201.554 20.4794C201.114 19.7871 200.673 19.2208 200.233 18.5914C200.107 18.5285 199.918 18.2768 199.855 18.1509C199.163 17.4587 198.219 17.0181 197.275 16.7664C194.443 16.0742 191.485 16.0742 188.716 16.7664C185.066 17.3328 181.416 16.5776 177.829 15.7595C177.577 15.7175 177.368 15.5707 177.2 15.319Z"
        fill="#fff" />
    <path
        d="M62.8526 49.3651C63.9224 48.7987 64.8035 47.9177 65.8733 47.4772C66.3138 47.9806 65.3699 48.2953 65.1181 48.6099C64.3 49.1134 63.6078 49.7427 62.6638 49.9315C62.7268 49.8056 62.7897 49.491 62.8526 49.3651Z"
        fill="#fff" />
    <path
        d="M87.8367 43.1977C90.7945 41.6873 93.7523 39.8623 97.0877 39.0442C99.0386 38.5408 100.927 37.7856 102.94 37.5338C104.199 37.345 105.395 36.8416 106.653 36.9675C106.087 37.8485 104.765 37.5968 103.821 37.9114C101.304 38.6666 98.7239 39.1071 96.3325 39.9882C93.3118 40.8063 90.6686 42.5684 87.9626 43.89C86.0117 44.8339 84.3754 46.2184 82.6763 47.54C81.2918 48.6728 79.8443 49.8056 78.7116 51.253C77.6417 52.6375 76.3202 53.8332 75.7538 55.5323C75.3132 56.791 74.8098 58.1126 74.8727 59.4971C75.3762 61.385 75.8796 63.4618 77.39 64.8463C79.3409 67.2377 82.2357 68.3704 84.9418 69.6291C86.1375 70.1955 87.522 70.1325 88.6548 70.7619C88.466 70.8248 88.1514 70.8877 87.9626 70.8877C86.0746 71.0136 84.3125 70.2584 82.6134 69.4403C80.9142 68.5592 79.0891 67.7411 77.8305 66.2937C76.8236 65.1609 75.502 64.0911 75.1874 62.5807C74.9356 61.4479 74.1805 60.504 74.1805 59.3712C74.0546 57.8608 74.6839 56.3505 75.1874 54.966C75.6908 53.3927 76.9495 52.2599 77.8935 51.0013C79.5297 48.9245 81.6693 47.4141 83.6832 45.8408C85.0047 44.8339 86.3263 43.89 87.8367 43.1977Z"
        fill="#fff" />
    <path
        d="M156.181 23.2484C158.069 22.6191 159.768 21.4863 161.719 21.1716C161.844 21.2346 162.033 21.3604 162.159 21.4863C159.768 21.9897 157.691 23.4372 155.3 23.9406C155.551 23.6889 155.803 23.3113 156.181 23.2484Z"
        fill="#fff" />
    <path
        d="M109.045 36.8417C112.254 35.7089 115.778 36.4641 118.925 37.471C122.072 38.5409 125.281 39.8624 127.735 42.1909C129.372 43.5754 130.756 45.2746 131.511 47.2884C132.833 50.0574 133.21 53.3928 132.204 56.2876C131.763 57.1687 131.511 58.1756 130.63 58.679C130.567 57.9868 131.071 57.4204 131.323 56.7911C132.204 54.7143 132.078 52.3229 131.7 50.1203C131.385 49.1763 130.882 48.2324 130.567 47.2884C129.309 44.3935 126.791 42.1909 124.148 40.6176C120.184 38.6038 115.904 36.8417 111.436 36.9676C110.618 36.9046 109.863 37.2822 109.108 37.0934L109.045 36.8417Z"
        fill="#fff" />
    <path
        d="M176.822 17.5216C176.885 17.4587 177.074 17.3328 177.2 17.2699C178.081 17.3958 179.025 17.5846 179.906 17.6475C180.368 17.7314 180.829 17.7943 181.291 17.8363C181.71 17.8363 182.151 17.8573 182.612 17.8992C182.549 18.0251 182.486 18.2139 182.486 18.3397C181.668 18.3397 180.85 18.2139 180.095 18.1509C179.549 18.109 179.004 18.0461 178.459 17.9622C177.913 17.8782 177.368 17.7314 176.822 17.5216Z"
        fill="#fff" />
    <path
        d="M57.0629 53.6444C57.2727 53.4766 57.4615 53.3088 57.6293 53.141C58.0698 53.4557 57.6922 53.7074 57.5034 54.022C57.3146 54.085 57 54.1479 56.8112 54.2108C56.8741 54.085 56.9999 53.8332 57.0629 53.6444Z"
        fill="#fff" />
    <path
        d="M154.167 26.6467C156.055 25.3251 158.383 25.0105 160.586 24.3182C160.523 24.4441 160.523 24.6958 160.523 24.8217C159.013 25.3251 157.502 25.6398 155.992 26.1433C155.426 26.3321 154.859 26.8984 154.167 26.6467Z"
        fill="#fff" />
    <path
        d="M54.5456 55.5954C54.8603 55.2807 55.2379 55.1549 55.6784 54.9661C55.5525 55.4066 55.3008 55.7213 54.9862 55.973C53.0982 57.5463 51.2732 59.2454 49.5111 60.9446C46.8679 63.5248 44.2248 66.1679 42.1481 69.2516C41.2041 70.6361 40.386 72.2094 40.5748 73.9085C40.5748 74.6008 41.0782 75.0413 41.4558 75.5448C41.3929 75.6706 41.267 75.8594 41.2041 75.9853C40.8265 75.6077 40.2601 75.2931 40.1342 74.6637C39.5678 73.0275 40.1972 71.2654 41.0153 69.818C43.2808 66.0421 46.4904 62.8955 49.6999 59.8118C50.0355 59.5181 50.3712 59.2035 50.7068 58.8678C51.9235 57.7351 53.2031 56.6442 54.5456 55.5954Z"
        fill="#fff" />
    <path
        d="M188.402 17.5216C189.597 17.3328 190.793 17.3958 191.989 17.5216C192.492 17.5846 193.059 17.6475 193.562 17.7104C195.954 17.8992 198.408 18.7803 200.107 20.5424C200.61 21.1717 200.988 21.8849 201.24 22.682C201.492 22.9967 201.303 23.3743 201.051 23.626C200.925 22.4303 200.17 21.3605 199.352 20.4794C197.842 19.2208 195.954 18.4027 194.003 18.2139C193.373 18.1719 192.744 18.109 192.115 18.0251C191.737 17.9831 191.381 17.9412 191.045 17.8992C190.164 17.8363 189.346 17.8363 188.528 17.8363L188.402 17.5216Z"
        fill="#fff" />
    <path
        d="M156.999 27.9683C157.565 27.0873 158.635 26.7726 159.39 26.1433C159.453 26.2692 159.516 26.5209 159.579 26.6468C158.761 27.1502 158.006 27.7795 156.999 27.9683Z"
        fill="#fff" />
    <path
        d="M147.685 29.7303C148.943 29.7933 148.314 31.2407 148.755 31.9959C147.874 33.1916 146.426 33.8209 145.042 34.3244C143.531 35.0796 141.832 35.3313 140.259 36.0235C139.189 36.527 137.993 36.7158 136.923 37.2192C134.91 38.1632 132.707 38.352 130.63 39.1072C129.183 39.6106 127.609 39.9253 126.162 40.4917C125.952 40.3658 125.764 40.2609 125.596 40.177C127.043 39.6736 128.428 38.9184 129.938 38.5408C132.392 37.8486 134.847 37.2192 137.238 36.4641C139.378 35.3942 141.769 35.1425 143.909 34.0726C145.482 33.695 146.93 32.9399 148.188 31.933C147.999 31.1778 148.188 30.3597 147.685 29.7303Z"
        fill="#fff" />
    <path
        d="M155.111 28.22C155.111 28.0942 155.111 27.9054 155.111 27.7795C155.74 27.5907 156.307 27.4019 156.936 27.2131C157.062 28.0942 155.74 27.9054 155.174 28.22C156.495 28.4718 158.006 28.9752 159.201 28.1571C159.327 28.22 159.516 28.3459 159.579 28.4088C158.32 29.4787 156.558 29.1011 155.111 28.7864C153.663 28.5976 152.342 29.2899 151.272 30.1709C150.076 31.3037 149.573 32.9399 149.573 34.5132C149.51 35.2684 150.139 35.7719 150.517 36.3383C150.831 36.9676 150.768 37.6598 150.831 38.3521C150.706 38.6038 150.496 38.7926 150.202 38.9185C150.202 38.0374 150.517 36.9676 149.825 36.2753C149.258 35.646 148.881 34.7649 149.006 33.8839C149.132 32.3735 149.762 30.8632 150.894 29.7304C152.027 28.7864 153.537 28.0942 155.111 28.22Z"
        fill="#fff" />
    <path
        d="M215.148 11.6689C215.462 11.1655 215.651 10.4732 216.218 10.1586C216.029 11.7319 215.022 12.9905 214.015 14.1233C212.694 15.5078 211.372 16.8923 209.987 18.2768C209.106 19.1159 208.204 19.934 207.281 20.7311C206.778 21.1507 206.274 21.5702 205.771 21.9898C202.561 24.3812 199.1 26.4579 195.702 28.6605C186.514 34.3873 177.2 40.0512 167.446 44.834C161.026 48.0435 154.482 51.0013 148.125 54.2738C146.3 55.1548 144.475 56.2876 142.462 56.7281C142.462 56.6023 142.399 56.3505 142.336 56.2876C143.783 55.91 145.042 55.2178 146.3 54.5885C154.733 50.1203 163.481 46.3444 171.977 41.9391C178.584 38.415 185.003 34.5761 191.423 30.6744C191.171 30.2968 190.856 29.9821 190.856 29.6045C191.045 27.9054 191.36 26.2062 190.667 24.57C190.353 24.0665 189.975 23.5001 189.535 23.0596C188.779 22.4932 187.835 22.2415 187.08 21.6122C188.528 21.5492 189.849 22.4932 190.667 23.626C191.674 24.8217 191.611 26.4579 191.611 27.9053C191.485 28.7235 191.108 29.7304 191.863 30.3597C196.646 27.4019 201.492 24.4441 206.086 21.1087C207.764 19.7242 209.358 18.2558 210.868 16.7035C211.246 16.2839 211.645 15.8644 212.064 15.4448C213.197 14.2491 214.393 13.1793 215.148 11.6689Z"
        fill="#fff" />
    <path
        d="M218.986 9.59213C219.049 9.46627 219.238 9.27748 219.301 9.15161C220.497 14.2491 220.874 19.5354 220.749 24.8216C220.623 29.7303 219.805 34.5761 218.798 39.4218C217.287 46.596 214.959 53.5815 211.812 60.1893C208.792 66.8601 204.701 73.0274 200.233 78.8171C197.904 81.8379 195.576 84.8586 192.681 87.3759C192.618 87.3129 192.555 87.1871 192.492 87.1242C193.436 85.8026 194.632 84.6698 195.702 83.4741C200.422 77.8102 204.764 71.8317 208.414 65.4756C213.134 56.8539 216.658 47.4771 218.483 37.7856C219.49 32.7511 220.182 27.5906 220.119 22.4302C220.182 18.0879 219.553 13.8086 218.986 9.59213Z"
        fill="#fff" />
    <path
        d="M160.397 27.4019C160.565 27.0243 160.754 26.6257 160.963 26.2062C161.026 26.395 161.152 26.7096 161.215 26.8984C161.047 27.1502 160.901 27.4019 160.775 27.6536C160.649 27.5907 160.46 27.4648 160.397 27.4019Z"
        fill="#fff" />
    <path
        d="M185.066 19.3467C185.696 19.3467 186.388 19.4096 187.017 19.4725C189.22 20.0389 191.611 20.6682 193.184 22.4933C193.247 22.5562 193.436 22.8079 193.562 22.8709C194.569 24.3812 195.639 25.7657 196.583 27.2761C196.247 27.1502 195.933 26.9824 195.639 26.7726C194.443 25.1993 193.625 23.3743 192.115 22.1157C191.234 21.3605 190.101 20.9829 189.031 20.6053C187.835 20.1648 186.514 19.7243 185.129 19.8501C185.129 19.7243 185.066 19.4725 185.066 19.3467Z"
        fill="#fff" />
    <path
        d="M115.275 40.4288C115.967 40.4288 116.597 40.3659 117.289 40.4288C117.708 40.5128 118.149 40.5967 118.61 40.6806C119.68 41.0582 121.191 41.184 121.694 42.3168C119.68 41.4358 117.541 40.8064 115.338 40.8064C115.338 40.7435 115.275 40.4918 115.275 40.4288Z"
        fill="#fff" />
    <path
        d="M92.7454 47.4141C93.1859 47.0995 93.4376 47.8547 93.06 48.0435C92.6195 48.3581 92.3049 47.6029 92.7454 47.4141Z"
        fill="#fff" />
    <path
        d="M217.225 12.4242C217.35 12.3612 217.539 12.1724 217.602 12.1095C217.602 12.613 217.476 13.1164 217.162 13.4311C215.588 15.2561 214.015 17.0811 212.253 18.6544C211.875 18.99 211.519 19.3257 211.183 19.6613C210.806 19.955 210.449 20.2697 210.113 20.6053C209.274 21.3185 208.435 22.0317 207.596 22.745C205.079 24.6959 202.561 26.5838 199.855 28.22C199.792 28.1571 199.667 28.0312 199.604 27.9054C202.121 26.1433 204.638 24.4441 207.03 22.4933C207.659 21.9898 208.288 21.4863 208.918 20.92C210.554 19.5355 212.19 18.088 213.7 16.5777C214.896 15.1932 216.281 13.9975 217.225 12.4242Z"
        fill="#fff" />
    <path
        d="M103.507 47.3514C104.639 46.3445 106.024 45.4634 107.597 45.4005C110.052 44.96 112.695 44.8341 114.96 46.0298C116.722 47.0367 118.359 48.4842 118.925 50.498C118.862 50.435 118.61 50.435 118.484 50.3721C117.415 48.4842 115.653 46.8479 113.513 46.1557C111.814 45.5264 109.989 45.7151 108.227 45.841C106.842 46.1557 105.458 46.4703 104.451 47.4143C102.311 49.2393 100.738 51.7566 100.36 54.5256C100.423 56.2248 100.171 58.1127 101.052 59.6231C101.367 60.7559 102.751 61.0076 103.255 62.0145C102.311 61.6998 101.304 61.1964 100.738 60.3783C99.542 58.5532 99.542 56.2877 99.6049 54.148C100.108 51.5049 101.619 49.1764 103.507 47.3514Z"
        fill="#fff" />
    <path
        d="M193.877 21.5492C194.695 21.4234 195.324 22.0527 196.079 22.2415C197.212 22.8079 198.597 23.0596 199.541 23.9406C198.848 24.2553 198.282 23.626 197.653 23.5001C196.394 22.8708 194.884 22.5561 193.877 21.5492Z"
        fill="#fff" />
    <path
        d="M129.057 41.121C129.12 40.9951 129.12 40.6805 129.183 40.5546C131.574 40.1141 133.84 41.4986 135.98 42.3796C137.805 43.1348 139.692 44.1417 141.706 44.3305C142.65 44.3935 143.594 44.2676 144.601 44.1417C144.412 44.5193 144.224 44.834 143.783 44.834C140.825 45.4004 137.993 43.9529 135.35 42.8202C133.777 42.1279 132.267 41.3727 130.567 41.0581C130.064 40.9951 129.56 40.9951 129.057 41.121Z"
        fill="#fff" />
    <path
        d="M142.902 37.1564C143.783 36.7158 144.727 36.59 145.671 36.4641C145.881 36.548 146.111 36.6529 146.363 36.7788C144.664 37.2193 142.965 37.534 141.455 38.415C139.252 39.6107 136.86 41.0581 134.28 40.6805C133.84 40.5547 133.022 40.4288 133.399 39.8624C133.966 39.9883 134.469 40.24 135.098 40.24C135.917 40.0512 136.735 39.7995 137.553 39.5478C139.504 39.0443 141.077 37.7857 142.902 37.1564Z"
        fill="#fff" />
    <path
        d="M158.195 34.1986C159.076 33.4434 160.02 32.6253 161.089 32.0589C162.222 31.6813 163.355 31.3037 164.551 31.1149C166.502 30.989 168.452 30.989 170.34 30.4226C172.543 29.7933 174.683 29.1011 176.948 28.7864C178.396 28.283 179.906 28.1571 181.416 28.3459C181.605 28.4088 181.857 28.4718 181.983 28.4718C183.178 28.6606 184.059 29.7304 184.374 30.8632C184.752 31.933 184.689 33.0658 185.003 34.1356C184.941 34.2615 184.752 34.4503 184.689 34.5762C183.934 33.0658 184.437 31.1778 183.304 29.8563C182.927 29.2269 182.297 28.9752 181.605 28.8494C181.479 28.7864 181.165 28.7864 181.039 28.7235C179.34 28.5347 177.766 29.1011 176.067 29.3528C173.865 29.8563 171.725 30.6115 169.522 31.1778C167.32 31.8072 164.865 31.2408 162.663 32.0589C160.838 32.4365 159.453 33.758 158.132 35.0167C156.118 37.2193 155.488 40.3029 155.929 43.1978C156.307 44.7082 157.817 45.5892 158.383 47.0367C157.251 46.722 156.621 45.7151 155.992 44.834C154.922 43.1978 155.111 41.1211 155.363 39.2331C155.803 37.3451 156.747 35.5831 158.195 34.1986Z"
        fill="#fff" />
    <path
        d="M160.838 33.4434C161.656 32.877 162.6 32.5623 163.544 32.4365C165.558 32.3735 167.571 32.1847 169.648 32.1218C171.033 32.0589 172.354 31.4296 173.676 31.052C175.123 30.6744 176.445 29.7933 177.955 29.6675C179.214 29.5416 180.598 29.4157 181.731 30.108C182.99 30.7373 183.43 32.1218 183.997 33.3175C184.248 33.8839 184.185 34.4503 184.122 35.0167C183.745 34.702 183.682 34.1986 183.556 33.758C183.178 32.9399 182.864 32.0589 182.36 31.3037C181.039 29.7933 178.899 30.0451 177.137 30.3597C176.256 30.6114 175.438 31.1149 174.557 31.3037C173.046 31.6184 171.725 32.5623 170.152 32.5623C167.949 32.7511 165.746 32.8141 163.481 32.9399C162.852 33.0658 162.159 33.1916 161.593 33.5692C160.208 34.6391 158.95 35.9606 158.006 37.4081C157.691 38.1633 157.565 38.9184 157.313 39.6736C156.873 40.8693 157.376 42.128 157.817 43.2607C158.446 44.4564 159.768 44.897 160.649 45.8409C160.355 45.8829 160.082 45.8409 159.831 45.7151C158.824 45.1487 157.817 44.3935 157.313 43.3237C157.02 42.6104 156.81 41.8762 156.684 41.1211C156.558 40.3029 156.873 39.5478 157.062 38.7926C157.439 36.527 159.327 34.9537 160.838 33.4434Z"
        fill="#fff" />
    <path
        d="M130.001 42.6945C130.127 42.6945 130.379 42.6945 130.504 42.6945C133.022 43.7643 135.728 44.5195 138.371 45.5264C140.007 46.0928 141.706 46.785 143.468 46.9109C143.909 46.9738 144.538 46.5962 144.79 47.0997C144.287 47.2885 143.72 47.5402 143.154 47.4143C141.077 47.1626 139.126 46.4074 137.238 45.7152C135.036 44.8971 132.707 44.3307 130.63 43.2609C130.379 43.093 130.169 42.9042 130.001 42.6945Z"
        fill="#fff" />
    <path
        d="M64.1743 63.1471C66.5657 61.9514 69.083 60.9445 71.5373 59.8118C71.6632 59.8747 71.9149 59.9376 71.9779 60.0006C71.4115 60.4411 70.7822 60.6928 70.0899 61.0075C67.8244 62.0144 65.5588 63.0842 63.3562 64.2799C60.1467 65.9791 56.9371 67.8041 54.2311 70.2584C53.413 71.0766 52.5319 71.9576 52.2802 73.1533C52.4061 73.7826 53.0983 74.0973 53.6647 74.2232C55.3009 74.4749 56.9372 74.4119 58.5734 74.4749C60.4613 74.5378 62.3493 74.7266 64.1743 74.1602C66.314 73.8456 68.3907 73.1533 70.4675 72.524C72.2296 71.7688 73.9917 71.2654 75.8167 70.8248C74.8098 72.0205 73.1106 71.8947 71.852 72.5869C68.7683 73.6568 65.6847 74.6007 62.5381 75.0413C60.3355 75.2301 58.0699 74.9783 55.8673 74.9783C54.6716 74.9154 53.413 74.9783 52.4061 74.2232C51.8397 73.8456 51.6509 73.0904 51.9026 72.4611C52.5949 70.8248 53.9794 69.6921 55.3009 68.5593C58.007 66.4196 61.1536 64.7834 64.1743 63.1471Z"
        fill="#fff" />
    <path
        d="M138.623 41.184C140.825 39.6736 143.406 38.9814 145.986 38.7926C146.552 38.7926 147.37 38.6038 147.559 39.296C146.049 39.2331 144.601 39.5477 143.154 39.7995C141.518 40.1771 140.07 41.121 138.434 41.6874C138.497 41.5616 138.56 41.3098 138.623 41.184Z"
        fill="#fff" />
    <path
        d="M73.1736 60.7557C72.9848 60.4411 73.2365 60.1264 73.3624 59.8118C73.8029 61.1963 74.4322 62.5808 74.9357 63.9653C75.7538 65.5386 76.8236 67.1119 77.7047 68.6852C78.2081 69.6291 78.9633 70.3214 79.7185 71.0766C80.2219 71.643 80.7883 72.0835 81.103 72.7757C80.0961 72.5869 79.5926 71.643 78.9004 71.0766C78.6906 70.8668 78.5018 70.657 78.334 70.4472C78.271 70.3843 78.0193 70.1326 77.9564 70.0697C76.7607 68.2446 75.6279 66.4196 74.5581 64.5946C74.1175 63.3359 73.4253 62.1402 73.1736 60.7557Z"
        fill="#fff" />
    <path
        d="M70.2158 62.4549C70.7192 62.2662 71.2226 62.0144 71.7261 61.7627C71.789 61.8256 71.9778 62.0144 72.0408 62.0774C71.4744 62.4549 70.9709 62.7696 70.3416 62.9584C67.6985 64.0282 65.2441 65.4757 62.7269 66.8602C61.2584 67.6573 59.853 68.5803 58.5104 69.6292C57.7552 70.3214 56.6854 70.9507 56.4337 72.0206C57.3147 72.524 58.3846 72.3352 59.3915 72.2723C62.0975 72.0206 64.8036 71.7689 67.5097 71.3283C69.5235 70.7619 71.6002 70.2585 73.5511 69.5662C74.3063 69.1887 74.9356 68.6852 75.6279 68.2447C75.7537 68.3076 75.8796 68.4335 76.0055 68.4964C75.0615 69.1887 74.1175 70.0068 72.9847 70.3214C71.1387 70.9088 69.2718 71.4332 67.3838 71.8947C64.3211 72.3562 61.2375 72.6709 58.1328 72.8387C57.3777 72.8387 56.3708 72.9016 56.0561 72.0206C55.8673 71.2654 56.6225 70.699 57.063 70.1956C59.2656 68.2447 61.72 66.7972 64.2372 65.4127C66.1252 64.28 68.139 63.2731 70.2158 62.4549Z"
        fill="#fff" />
    <path
        d="M145.797 42.4426C146.552 40.8064 148.377 40.3029 149.825 39.4219C149.887 39.4848 149.95 39.7365 150.013 39.8624C149.069 40.4288 148.062 40.8693 147.181 41.5616C146.489 42.1279 146.112 42.9461 145.923 43.8271C145.986 44.5823 145.923 45.4633 146.3 46.1556C147.622 47.7289 150.013 48.0435 151.083 49.8686C150.454 50.0574 150.013 49.428 149.573 49.1134C148.377 48.1065 146.678 47.7289 145.797 46.3444C145.293 45.1487 145.105 43.6383 145.797 42.4426Z"
        fill="#fff" />
    <path
        d="M113.072 51.0013C113.366 50.7915 113.513 50.8754 113.513 51.253C113.219 51.4628 113.072 51.3789 113.072 51.0013Z"
        fill="#fff" />
    <path
        d="M108.478 52.8264C108.604 52.3859 109.233 52.6376 109.045 53.0781C108.919 53.4557 108.289 53.141 108.478 52.8264Z"
        fill="#fff" />
    <path
        d="M69.146 65.098C70.0899 64.8463 70.971 64.4687 71.852 64.1541C72.0408 64.217 72.2925 64.3428 72.4813 64.4058C68.8313 65.7903 65.1813 67.3006 61.9088 69.4403C61.5312 69.755 60.776 70.1326 61.0278 70.699C61.3424 70.8878 61.6571 70.9507 62.0347 71.0136C63.608 71.0136 65.0554 70.3843 66.6287 70.0067C69.0201 69.3774 71.4115 68.5593 73.8658 67.9929C73.6771 68.4334 73.2995 68.6851 72.796 68.7481C69.8382 69.6291 66.8175 70.5102 63.7968 71.3283C63.2933 71.3912 62.7269 71.3912 62.1605 71.5171C61.6571 71.4332 61.1536 71.3073 60.6502 71.1395C60.5663 70.8458 60.4823 70.5521 60.3984 70.2584C60.6502 69.9438 60.9019 69.5662 61.2795 69.3145C63.6709 67.5524 66.4399 66.3567 69.146 65.098Z"
        fill="#fff" />
    <path
        d="M162.222 40.4288C162.474 39.1073 163.481 37.9115 164.802 37.534C166.627 37.2193 168.515 38.0374 170.34 37.7857C171.473 37.534 172.228 36.527 173.298 36.1495C174.683 35.646 176.319 35.0167 177.829 35.7719C178.396 35.9607 178.396 36.6529 178.521 37.0934C178.228 36.8417 177.955 36.569 177.703 36.2753C177.011 36.0865 176.319 35.7719 175.627 35.9607C174.62 36.2124 173.613 36.4641 172.795 37.0305C172.102 37.4081 171.536 38.0374 170.781 38.2262C168.704 38.9185 166.501 37.471 164.488 38.2891C162.789 39.0443 162.285 41.3728 163.292 42.9461C163.67 43.5125 164.299 43.7013 164.865 44.0159C164.676 44.0789 164.362 44.2047 164.173 44.2677C163.628 44.0159 163.145 43.6803 162.726 43.2608C162.474 42.3168 162.033 41.3728 162.222 40.4288Z"
        fill="#fff" />
    <path
        d="M215.336 24.8217C215.399 24.3182 215.336 23.6889 215.777 23.3743C216.092 24.57 215.777 25.8286 215.588 27.0243C214.141 33.9468 212.442 40.7435 209.987 47.3513C208.477 51.6936 206.778 56.0359 204.764 60.1265C201.429 67.3007 197.212 74.0344 192.052 80.0129C191.108 81.0198 190.164 82.0897 188.968 82.8449C189.031 82.719 189.094 82.4043 189.094 82.2785C194.443 76.7405 198.785 70.3214 202.247 63.4618C205.267 57.6721 207.722 51.6307 209.861 45.4633C211.938 39.7365 213.386 33.758 214.77 27.8424C214.959 26.8355 215.148 25.8286 215.336 24.8217Z"
        fill="#fff" />
    <path
        d="M112.506 53.3928C112.8 53.183 112.946 53.2669 112.946 53.6445C112.653 53.8543 112.506 53.7704 112.506 53.3928Z"
        fill="#fff" />
    <path
        d="M133.21 48.1064C135.287 48.3582 137.364 48.4211 139.441 48.2952C139.944 48.2952 140.511 48.0435 140.762 48.547C138.686 49.1763 136.483 48.9246 134.28 48.7987C133.966 48.6099 132.707 48.6728 133.21 48.1064Z"
        fill="#fff" />
    <path
        d="M66.8802 68.3076C68.3906 66.9231 70.4673 66.2309 72.4812 65.7274C72.5441 65.7903 72.7958 66.0421 72.8588 66.105C71.1596 66.5455 69.4604 67.1119 67.9501 68.1188C69.7122 67.7412 71.3484 67.3007 73.0476 66.9231C72.9217 67.3007 72.607 67.5524 72.2295 67.6154C70.5303 68.0559 68.8311 68.6223 67.069 68.8111C67.0061 68.6852 66.8802 68.4335 66.8802 68.3076Z"
        fill="#fff" />
    <path
        d="M195.198 30.6743C195.492 30.5904 195.786 30.5065 196.079 30.4226C196.017 30.5485 195.891 30.8002 195.828 30.989C191.234 33.8839 186.577 36.8417 181.857 39.5477C180.724 40.1141 179.717 40.9322 178.521 41.2469C178.584 41.121 178.773 40.8693 178.899 40.7434C184.374 37.471 189.975 34.3244 195.198 30.6743Z"
        fill="#fff" />
    <path
        d="M132.833 48.6729C132.959 48.7358 133.273 48.8617 133.399 48.9246C133.777 50.1203 134.406 51.1901 134.658 52.3858C135.098 53.5186 135.098 54.7772 135.413 55.91C135.35 56.0988 135.224 56.4764 135.161 56.6652C134.721 56.2247 134.784 55.5954 134.658 55.029C134.091 52.8893 133.462 50.8125 132.833 48.6729Z"
        fill="#fff" />
    <path
        d="M164.928 39.8624C165.809 38.9814 167.194 39.1072 168.327 39.359C169.271 39.6107 170.215 39.1072 171.221 38.8555C172.732 38.4779 174.053 37.2822 175.69 37.2193C176.571 37.1563 177.829 37.4081 177.892 38.5408C177.263 38.2262 176.634 37.5969 175.878 37.7857C174.557 37.7857 173.424 38.4779 172.291 39.0443C171.242 39.4219 170.173 39.7156 169.082 39.9253C168.012 39.9253 166.816 39.4848 165.746 39.9253C165.369 40.1771 164.928 40.4288 164.928 40.9322C164.614 41.8133 165.746 42.1279 166.187 42.6943C165.369 42.9461 164.739 42.1909 164.362 41.5616C164.299 40.9952 164.425 40.24 164.928 39.8624Z"
        fill="#fff" />
    <path
        d="M119.428 52.8893C119.554 52.8264 119.743 52.6376 119.806 52.5117C120.058 54.085 120.372 55.6583 120.058 57.2945C119.806 59.5601 118.547 61.6998 116.597 62.9584C113.828 64.8464 110.366 65.5386 107.031 65.2239C105.835 64.9722 104.702 64.5317 103.758 63.7765V63.3989C104.891 63.8395 105.961 64.4688 107.157 64.6576C110.492 64.8464 114.016 63.9653 116.722 61.9515C118.61 60.5041 119.428 58.1127 119.617 55.7842C119.743 54.8402 119.554 53.8333 119.428 52.8893Z"
        fill="#fff" />
    <path
        d="M111.877 55.8471C112.212 55.6373 112.359 55.7422 112.317 56.1617C111.94 56.3715 111.793 56.2666 111.877 55.8471Z"
        fill="#fff" />
    <path
        d="M42.5258 76.0482C43.1551 75.8594 43.7844 76.1111 44.4137 76.2999C45.5045 76.5097 46.6163 76.7195 47.7491 76.9293C52.6578 77.3698 57.6294 77.2439 62.5381 76.7405C70.5933 76.1741 78.5228 74.8525 86.3893 73.0904C87.2283 73.0065 88.0464 72.8387 88.8436 72.587C90.0393 72.2094 91.2979 72.1464 92.5566 71.7689C95.4514 70.9507 98.4092 70.1326 101.367 69.4404C104.388 68.7481 107.22 67.5524 110.24 66.7343C112.632 65.9791 115.086 65.4127 117.415 64.4688C119.491 63.7136 121.631 63.336 123.708 62.5179C125.533 61.6998 127.547 61.3851 129.435 60.567C131.26 59.8118 133.336 59.5601 135.161 58.6161C136.861 57.9868 138.749 57.6092 140.448 56.854L140.574 57.2316C140.007 57.4204 139.504 57.6092 139 57.8609C137.805 58.4273 136.42 58.6161 135.224 59.1825C133.651 59.9377 131.889 60.1894 130.253 60.8816C128.616 61.6368 126.854 61.8886 125.155 62.5808C123.141 63.4619 120.876 63.7765 118.862 64.7205C116.282 65.6015 113.639 66.2308 111.059 67.1119C108.227 68.1817 105.332 68.874 102.437 69.755C99.7937 70.4473 97.1506 71.3283 94.3816 71.8318C92.4307 72.2723 90.5427 73.0275 88.5289 73.2163C86.9556 73.7197 85.3194 73.8456 83.809 74.2861C78.9633 75.2301 74.1805 76.1111 69.2718 76.6775C64.6778 77.181 60.1467 77.6845 55.4897 77.8103C51.525 77.8103 47.4344 77.8103 43.5956 76.5517C43.218 76.4887 42.9033 76.237 42.5258 76.0482Z"
        fill="#fff" />
    <path
        d="M107.283 58.1757C107.66 57.9239 107.828 58.0078 107.786 58.4274C107.451 58.6791 107.283 58.5952 107.283 58.1757Z"
        fill="#fff" />
    <path
        d="M134.532 51.1273C136.609 50.8756 138.685 50.7497 140.636 49.8057C141.454 49.3652 142.336 49.1135 143.279 48.9247C143.217 49.0505 143.091 49.3023 143.028 49.4281C140.511 50.5609 137.804 51.5678 135.035 51.5049C134.91 51.379 134.658 51.1902 134.532 51.1273Z"
        fill="#fff" />
    <path
        d="M42.7775 78.2509C43.4697 78.7543 43.7214 79.6354 44.2249 80.3276C45.6094 82.4673 47.3715 84.2923 49.0077 86.1803C51.2103 88.8863 53.413 91.6553 55.7414 94.1726C59.2027 97.7597 62.9786 100.906 67.0692 103.675C74.558 108.773 82.7392 113.115 91.6755 115.192C92.8712 115.444 94.0669 115.758 95.3255 116.01C96.1646 116.178 97.0037 116.325 97.8428 116.45C98.556 116.618 99.2902 116.765 100.045 116.891C100.926 117.017 101.87 117.143 102.752 117.269C104.01 117.394 105.269 117.583 106.527 117.646C111.121 118.087 115.841 118.653 120.435 118.087C120.813 117.961 121.128 118.15 121.379 118.276C120.121 118.842 118.736 118.779 117.352 118.842C112.443 118.968 107.534 118.275 102.626 117.835C101.556 117.646 100.486 117.52 99.4161 117.332C98.8287 117.248 98.2624 117.143 97.717 117.017C97.4233 116.975 97.1296 116.933 96.8359 116.891C96.5003 116.807 96.1437 116.723 95.7661 116.639C94.5704 116.388 93.3117 116.136 92.116 115.821C91.4447 115.695 90.7945 115.548 90.1652 115.381C82.4875 113.43 75.3132 109.717 68.7054 105.437C63.8596 102.291 59.3285 98.7666 55.3638 94.6131C55.0282 94.2355 54.6926 93.8789 54.3569 93.5433C53.6017 92.6623 52.7836 91.7183 52.0284 90.7743C49.9517 88.257 47.812 85.6768 45.6723 83.1595C44.4766 81.7121 43.0921 80.1388 42.7775 78.2509Z"
        fill="#fff" />
    <path
        d="M140.762 51.6935C142.65 50.7495 144.538 49.7426 146.426 48.7357C146.552 48.8616 146.741 49.0504 146.867 49.1133C143.972 50.5607 141.266 52.4487 138.056 52.9521C137.93 52.8892 137.679 52.7634 137.553 52.6375C138.623 52.2599 139.755 52.0711 140.762 51.6935Z"
        fill="#fff" />
    <path
        d="M43.9731 78.2509C44.6654 78.125 45.2947 78.4397 45.924 78.6285C48.1896 79.2578 50.581 79.3207 52.9724 79.1948C62.538 78.9431 72.1666 78.3138 81.6693 76.9293C82.1728 76.8664 82.6133 76.7405 83.1168 76.6146C83.0748 76.9922 82.886 77.202 82.5504 77.2439C79.7184 77.8103 76.8865 78.125 73.9916 78.3767C67.8243 79.069 61.657 79.4466 55.4897 79.6983C52.7207 79.7612 49.8887 80.0129 47.1197 79.4466C46.0499 79.1948 44.8542 79.006 43.9731 78.2509Z"
        fill="#fff" />
    <path
        d="M137.175 55.9099C141.14 54.6513 145.168 53.2668 148.503 50.7495C148.629 51.4418 147.874 51.8194 147.433 52.1969C145.608 53.3297 143.72 54.2108 141.706 54.903C140.322 55.5953 138.812 55.9729 137.364 56.2875C137.301 56.2246 137.238 56.0358 137.175 55.9099Z"
        fill="#fff" />
    <path
        d="M73.0477 73.1534C74.6839 72.6499 76.446 72.2723 77.9564 71.4542C77.9564 71.5801 77.8935 71.8318 77.8935 71.9577C76.0055 72.9646 73.8658 73.468 71.7891 73.9715C71.9149 73.4051 72.5442 73.3422 73.0477 73.1534Z"
        fill="#fff" />
    <path
        d="M58.4476 91.6553C58.1959 91.3407 57.5665 90.7743 58.3217 90.9631C61.5312 93.7321 65.3072 95.683 68.9572 97.6968C79.1522 102.794 89.7247 107.199 100.864 109.717C102.689 110.094 104.514 110.409 106.402 110.724C107.597 110.912 108.793 111.038 109.989 111.29C110.534 111.332 111.08 111.395 111.625 111.479C112.569 111.605 113.576 111.668 114.583 111.794C115.296 111.835 116.009 111.898 116.722 111.982C117.415 111.982 118.107 112.045 118.799 112.171C118.359 112.612 117.666 112.549 117.037 112.549C114.835 112.423 112.632 112.234 110.429 111.919C105.458 111.29 100.486 110.472 95.6403 109.087C87.0816 106.759 78.8375 103.235 70.9081 99.333C66.6287 97.0045 62.0976 94.8649 58.4476 91.6553Z"
        fill="#fff" />
    <path
        d="M178.899 91.2148C181.416 89.5156 183.682 87.5018 185.822 85.425C185.885 85.7397 185.947 86.1802 185.633 86.432C184.122 88.1311 182.36 89.5156 180.535 90.9001C179.528 91.5924 178.584 92.3476 177.452 92.6622C177.703 91.97 178.396 91.6553 178.899 91.2148Z"
        fill="#fff" />
    <path
        d="M188.842 90.2078C189.472 89.7673 190.038 89.2639 190.73 89.0751C190.542 89.7673 189.786 90.019 189.283 90.5225C185.885 93.4803 182.297 96.2493 178.522 98.7666C174.431 101.536 170.152 103.927 165.746 106.13C160.901 108.458 156.118 110.787 151.083 112.549C149.762 113.241 148.188 113.43 146.804 114.059C144.916 114.751 142.965 115.318 140.951 115.695C139.378 116.01 137.868 116.576 136.294 116.765C132.938 117.52 129.561 118.066 126.162 118.401C126.225 118.338 126.288 118.087 126.351 118.024C129.686 117.394 133.085 117.017 136.42 116.136C138.371 115.947 140.133 115.255 142.021 114.814C149.699 112.863 156.999 109.717 164.047 106.255C171.033 102.92 177.64 99.0183 183.745 94.2984C184.437 93.732 185.192 93.2286 185.885 92.6622C186.304 92.2846 186.745 91.928 187.206 91.5923C187.752 91.1308 188.297 90.6693 188.842 90.2078Z"
        fill="#fff" />
    <path
        d="M187.269 93.4175C189.094 93.858 189.534 95.8718 190.604 97.1305C190.982 97.55 191.255 98.0325 191.422 98.5779C191.297 98.515 190.982 98.452 190.856 98.452C190.52 97.9905 190.185 97.529 189.849 97.0675C189.031 96.0606 188.653 94.739 187.458 94.0468C187.458 93.9209 187.332 93.6063 187.269 93.4175Z"
        fill="#fff" />
    <path
        d="M122.575 112.989C122.701 112.863 122.953 112.737 123.078 112.612C124.085 112.612 125.092 112.612 126.099 112.612C126.414 112.549 126.728 112.674 126.917 112.989C125.47 113.115 124.022 113.304 122.575 112.989Z"
        fill="#fff" />
    <path
        d="M186.64 97.8226C186.325 97.2562 185.947 96.564 186.703 96.1864C186.954 97.1933 187.961 98.5149 187.08 99.4589C185.885 100.906 184.311 101.913 182.864 103.046C181.857 103.738 180.913 104.682 179.78 105.06C179.717 104.682 180.032 104.43 180.284 104.179C182.172 102.668 184.185 101.284 186.01 99.6477C186.451 99.2071 187.143 98.5149 186.64 97.8226Z"
        fill="#fff" />
    <path
        d="M189.975 100.025C190.416 99.7106 190.919 99.3959 191.485 99.27C191.36 99.5637 191.192 99.7945 190.982 99.9623C187.458 102.605 184.122 105.437 180.598 108.018C172.983 113.807 164.362 118.213 155.363 121.17C152.09 122.177 148.755 123.121 145.419 124.002C144.224 124.317 143.028 124.757 141.832 124.946C140.133 125.135 138.497 125.89 136.798 126.016C134.721 126.582 132.518 126.771 130.379 127.275C130.127 127.338 129.309 127.589 129.435 127.023C132.078 126.142 134.973 126.079 137.679 125.198C139.441 124.946 141.14 124.506 142.839 124.002C146.867 123.184 150.768 121.988 154.733 120.793C156.181 120.1 157.754 119.849 159.201 119.156C164.865 117.08 170.214 114.248 175.249 110.975C178.144 109.087 180.913 107.011 183.619 104.934C185.717 103.256 187.835 101.619 189.975 100.025Z"
        fill="#fff" />
    <path
        d="M126.729 120.352C126.791 120.226 126.98 120.038 127.106 119.975C127.484 121.422 127.232 122.932 127.672 124.38C127.798 125.513 128.491 126.582 128.365 127.715C127.672 127.401 127.61 126.645 127.421 126.016C126.791 124.191 126.791 122.24 126.729 120.352Z"
        fill="#fff" />
    <path
        d="M175.123 108.143C175.878 107.577 176.508 106.759 177.452 106.444C177.137 107.514 176.067 108.08 175.312 108.773C174.179 109.591 173.109 110.598 171.788 111.101C171.914 110.787 172.039 110.472 172.354 110.22C173.235 109.528 174.179 108.836 175.123 108.143Z"
        fill="#fff" />
    <path
        d="M129.372 120.856C129.498 120.73 129.686 120.478 129.749 120.352C130.064 121.611 130.127 122.995 130.001 124.254C129.875 124.254 129.686 124.317 129.56 124.317C129.498 123.184 129.435 121.989 129.372 120.856Z"
        fill="#fff" />
</svg>